<svg width="32" height="32" viewBox="0 0 32 32" fill="none" xmlns="http://www.w3.org/2000/svg">
<path d="M25 20.0002C26.1045 20.0002 26.9999 20.8957 27 22.0002V25.0002C27 26.1047 26.1046 27.0002 25 27.0002H6C4.89543 27.0002 4 26.1047 4 25.0002V22.0002C4.00008 20.8957 4.89548 20.0002 6 20.0002H25ZM15.5645 4.00015C16.0656 3.99365 16.5687 4.19443 16.9512 4.60464L21.5635 9.55386C22.3165 10.3619 22.3165 11.6725 21.5635 12.4806C20.8105 13.2882 19.5898 13.2883 18.8369 12.4806L17.5879 11.1398V17.0675C17.5879 18.1721 16.6925 19.0675 15.5879 19.0675C14.4835 19.0674 13.5879 18.172 13.5879 17.0675V11.089L12.292 12.4806C11.5389 13.2887 10.3175 13.2887 9.56445 12.4806C8.81175 11.6725 8.81152 10.3618 9.56445 9.55386L14.1777 4.60464C14.5602 4.19438 15.0633 3.99369 15.5645 4.00015Z" fill="#D8DEE9"/>
</svg>
